Coordinates
version=1
nRows=5
nColumns=40
inDegrees=yes
endheader
time	pelvis_tilt	pelvis_list	pelvis_rotation	pelvis_tx	pelvis_ty	pelvis_tz	hip_flexion_r	hip_adduction_r	hip_rotation_r	knee_angle_r	knee_angle_r_beta	ankle_angle_r	subtalar_angle_r	mtp_angle_r	hip_flexion_l	hip_adduction_l	hip_rotation_l	knee_angle_l	knee_angle_l_beta	ankle_angle_l	subtalar_angle_l	mtp_angle_l	lumbar_extension	lumbar_bending	lumbar_rotation	arm_flex_r	arm_add_r	arm_rot_r	elbow_flex_r	pro_sup_r	wrist_flex_r	wrist_dev_r	arm_flex_l	arm_add_l	arm_rot_l	elbow_flex_l	pro_sup_l	wrist_flex_l	wrist_dev_l
      0.00000000	      1.60068443	      2.76818258	     86.30741662	     -0.02231930	      0.97956804	     -0.21223007	     -2.29381719	     -6.85523972	     -2.47418614	      5.26402987	      0.09187465	      0.38156532	      0.00000000	      0.00000000	     -4.93299509	     -9.16533990	     -8.25569357	      3.33105608	      0.05813790	      0.17519005	      0.00000000	      0.00000000	     -6.16447034	      2.71764191	      1.90536409	      0.00000000	     -5.10482633	      0.00000000	     62.63810689	     50.25569907	      0.00000000	      0.00000000	      0.00000000	     -5.10482633	      0.00000000	     62.63810689	     50.25569907	      0.00000000	      0.00000000
      0.00833000	      1.53404471	      2.82232665	     86.24073264	     -0.02219229	      0.97963317	     -0.21223556	     -2.34705058	     -6.93132907	     -2.37888251	      5.24656696	      0.09156987	      0.37957161	      0.00000000	      0.00000000	     -5.01265538	     -9.08288051	     -8.36398850	      3.30634093	      0.05770654	      0.11015209	      0.00000000	      0.00000000	     -6.24334931	      2.62754343	      2.01815322	      0.00000000	     -6.70853442	      0.00000000	     65.54146696	     48.74509087	      0.00000000	      0.00000000	      0.00000000	     -6.70853442	      0.00000000	     65.54146696	     48.74509087	      0.00000000	      0.00000000
      0.01667000	      1.57074925	      2.77507835	     86.35508596	     -0.02234843	      0.97957543	     -0.21233367	     -2.34047766	     -6.88205985	     -2.52591277	      5.21911369	      0.09109072	      0.37125192	      0.00000000	      0.00000000	     -4.93270277	     -9.13387397	     -8.21834039	      3.32785100	      0.05808196	      0.16016303	      0.00000000	      0.00000000	     -6.17591700	      2.68464933	      1.91169146	      0.00000000	     -7.69330911	      0.00000000	     67.12763522	     47.93567744	      0.00000000	      0.00000000	      0.00000000	     -7.69330911	      0.00000000	     67.12763522	     47.93567744	      0.00000000	      0.00000000
      0.02500000	      1.62940763	      2.79085500	     86.35329541	     -0.02232711	      0.97961230	     -0.21232265	     -2.37459946	     -6.81548624	     -2.46028235	      5.19369838	      0.09064714	      0.38398666	      0.00000000	      0.00000000	     -4.94900352	     -9.20403168	     -8.23988181	      3.34560575	      0.05839184	      0.18976328	      0.00000000	      0.00000000	     -6.21666548	      2.75032424	      1.98173402	      0.00000000	     -8.09619498	      0.00000000	     67.91589421	     47.33067053	      0.00000000	      0.00000000	      0.00000000	     -8.09619498	      0.00000000	     67.91589421	     47.33067053	      0.00000000	      0.00000000
      0.03333000	      1.62173482	      2.77530784	     86.45303110	     -0.02248117	      0.97958541	     -0.21238710	     -2.40029157	     -6.82385856	     -2.59823656	      5.14618366	      0.08981785	      0.32766413	      0.00000000	      0.00000000	     -4.91509034	     -9.20041473	     -8.12348875	      3.33702285	      0.05824204	      0.16879921	      0.00000000	      0.00000000	     -6.19894223	      2.75099057	      1.92573184	      0.00000000	     -8.23127404	      0.00000000	     68.16043830	     47.16159159	      0.00000000	      0.00000000	      0.00000000	     -8.23127404	      0.00000000	     68.16043830	     47.16159159	      0.00000000	      0.00000000
